<?xml version="1.0" standalone="no"?>
<!DOCTYPE svg PUBLIC "-//W3C//DTD SVG 20010904//EN"
 "http://www.w3.org/TR/2001/REC-SVG-20010904/DTD/svg10.dtd">
<svg version="1.0" xmlns="http://www.w3.org/2000/svg"
 width="512.000000pt" height="512.000000pt" viewBox="0 0 512.000000 512.000000"
 preserveAspectRatio="xMidYMid meet">
<metadata>
Created by potrace 1.11, written by Peter Selinger 2001-2013
</metadata>
<g transform="translate(0.000000,512.000000) scale(0.100000,-0.100000)"
fill="#000000" stroke="none">
<path d="M1119 4435 c-201 -40 -372 -182 -451 -375 -15 -36 -30 -78 -33 -95
-3 -16 -8 -41 -10 -55 -3 -14 -5 -62 -6 -107 l0 -82 -32 -6 c-18 -4 -88 -20
-157 -37 -69 -16 -132 -31 -140 -33 -63 -13 -105 -30 -124 -49 -43 -45 -112
-122 -139 -155 -26 -31 -28 -40 -22 -85 16 -139 147 -236 308 -231 l38 1 -49
-50 c-96 -99 -169 -236 -196 -366 -16 -77 -16 -152 -16 -1587 l0 -411 24 -29
24 -28 679 -2 c421 -1 690 2 710 8 53 17 61 39 62 194 1 77 6 142 11 145 6 4
1922 5 2002 1 15 -1 17 -19 20 -151 3 -140 4 -151 26 -172 l23 -23 699 0 699
0 23 23 23 23 0 977 c0 537 -3 993 -7 1012 -13 65 -40 145 -65 195 -29 58
-119 179 -159 214 l-28 24 45 12 c97 26 143 59 186 133 79 135 0 302 -168 353
-37 11 -74 22 -81 23 -39 6 -296 69 -315 76 -20 8 -22 16 -22 84 0 190 -65
347 -196 471 -89 84 -181 132 -310 161 -87 19 -2778 18 -2876 -1z"/>
</g>
</svg>
